<?xml version="1.0" encoding="utf-8"?>
<!-- Generator: Adobe Illustrator 25.3.0, SVG Export Plug-In . SVG Version: 6.00 Build 0)  -->
<svg version="1.1" id="Layer_1" xmlns="http://www.w3.org/2000/svg" xmlns:xlink="http://www.w3.org/1999/xlink" x="0px" y="0px"
	 viewBox="0 0 96 96" style="enable-background:new 0 0 96 96;" xml:space="preserve">
<style type="text/css">
	.st0{fill:#EAC3C5;}
	.st1{display:none;}
	.st2{display:inline;fill:#9B1821;}
	.st3{fill:#9B1821;}
</style>
<circle class="st0" cx="48" cy="48" r="48"/>
<g class="st1">
	<path class="st2" d="M44.2,20c1,0.7,2.1,1.3,3.1,1.9c2.5,1.5,5.1,2.8,7.5,4.5c6.8,4.8,10.8,11.3,12,19.5c0.4,2.7,0.3,5.3,0.3,8
		c0,0.2,0,0.5,0,0.7c0,0.4,0.1,0.5,0.5,0.4c5.3-1.8,10.8,1.6,11.9,7c0,0.1,0.1,0.2,0.1,0.3c0,0.9,0,1.8,0,2.7
		c-0.3,1.5-0.8,2.9-1.8,4.2c-0.3,0.3-0.6,0.5-1,0.4s-0.6-0.4-0.6-0.8c0-0.3,0.1-0.5,0.3-0.7c0.8-1.1,1.3-2.3,1.4-3.7
		c0.2-2.9-0.9-5.2-3.3-6.7c-4.6-3.2-10.6-0.3-11.3,5c-0.3,2.8,0.6,5.1,2.9,6.8c2.3,1.7,4.8,1.9,7.4,0.8c0.1-0.1,0.3-0.1,0.4-0.2
		c0.6-0.2,1.1-0.1,1.3,0.4c0.2,0.5,0,0.9-0.5,1.2c-1,0.6-2.1,0.9-3.3,1c-1.4,0.2-2.7,0-3.9-0.4c-0.4-0.1-0.5,0-0.5,0.4
		c0,1,0,2.1,0,3.1c0,0.2,0,0.4,0,0.6c-0.1,0.6-0.4,0.9-0.9,0.9s-0.8-0.4-0.9-0.9c0-0.2,0-0.3,0-0.5c0-1.3,0-2.7,0-4
		c0-0.4-0.1-0.7-0.5-1c-2.3-1.9-3.5-4.3-3.4-7.2c0-2.8,1.2-5.1,3.3-6.9c0.4-0.4,0.6-0.7,0.6-1.3c0-1.9,0-3.8,0-5.7
		c-0.3-9.9-4.6-17.5-13-22.7c-2.9-1.8-5.8-3.4-8.8-5.1c-0.9-0.5-1-1-0.3-1.8C43.6,20,43.9,20,44.2,20z"/>
	<path class="st2" d="M28.8,20c0.2,0.2,0.4,0.4,0.6,0.6c3.7,3.7,7.5,7.5,11.2,11.2c0.2,0.2,0.4,0.3,0.5,0.5c0.2,0.4,0.2,0.8-0.2,1.1
		s-0.7,0.3-1.1,0c-0.1-0.1-0.2-0.2-0.3-0.3c-3.8-3.8-7.6-7.6-11.4-11.4c-0.7-0.7-0.7-1-0.1-1.7C28.3,20,28.5,20,28.8,20z"/>
	<path class="st2" d="M56.2,66c0-3.2,0-6.3,0-9.5c0-1.2,0.4-2.2,1.3-3c1.9-1.6,3-3.6,3.2-6.1c0.1-0.6,0-1.2-0.2-1.8
		c-0.2-1-1-1.7-2-1.8s-1.9,0.4-2.3,1.4c-0.4,1.1-0.8,2.1-1.4,3.1c-1.7,3-4,5.3-7.1,6.8c-0.6,0.3-1,0.7-1,1.4c0,0.8,0.6,1.4,1.4,1.4
		c0.6,0,1.3,0,2,0c1.5,0,2.7,1.1,2.9,2.6c0,0.4,0.1,0.8,0.1,1.2c0,4.6,0,9.2,0,13.8c0,0.3,0,0.6-0.1,0.9c-0.1,0.5-0.4,0.7-0.9,0.7
		s-0.7-0.3-0.8-0.8c0-0.2,0-0.4,0-0.6c0-4.8,0-9.6,0-14.3c0-1.3-0.3-1.6-1.6-1.6c-0.6,0-1.2,0-1.7-0.1c-1.4-0.1-2.6-1-2.9-2.4
		c-0.4-1.4,0.2-2.8,1.4-3.6c0.8-0.5,1.6-0.8,2.4-1.4c2.8-1.9,4.5-4.6,5.7-7.7c1-2.8,4.3-3.6,6.5-1.7c0.9,0.8,1.3,1.9,1.4,3.1
		c0.2,3.5-1.1,6.4-3.7,8.7c-0.5,0.5-0.7,0.9-0.7,1.6c0,6.4,0,12.8,0,19.2c0,0.2,0,0.5,0,0.7c-0.1,0.4-0.4,0.7-0.8,0.7
		c-0.5,0-0.8-0.2-0.9-0.7c-0.1-0.3-0.1-0.5-0.1-0.8C56.2,72.4,56.2,69.2,56.2,66z"/>
	<path class="st2" d="M53.9,41.5c0,2-1.5,3.7-3.4,3.9c-0.5,0-0.7,0.2-0.7,0.7c-0.2,1.7-1.4,3-3,3.4c-2.7,0.6-5.2-1.8-4.7-4.5
		c0.4-1.7-0.1-3-1.3-4.2c-5.9-6-11.7-11.8-17.6-17.7c-0.2-0.2-0.3-0.3-0.5-0.5c-0.3-0.4-0.3-0.8,0-1.2c0.3-0.3,0.8-0.4,1.2-0.1
		c0.1,0.1,0.2,0.2,0.4,0.3c6,6,11.9,11.9,17.9,17.9c1.5,1.5,2.1,3.2,1.7,5.3c-0.3,1.7,0.6,2.8,2.2,2.7c1,0,1.9-0.9,2-2
		c0-0.1,0-0.2,0-0.3c0-1.3,0.5-1.8,1.8-1.8c1.2,0,2-0.6,2.2-1.6c0.3-1.5-1-2.9-2.5-2.5c-1.6,0.4-3.1,0.1-4.5-0.8
		c-0.5-0.3-0.9-0.7-1.2-1.1c-0.6-0.6-1.1-1.1-1.7-1.7c-0.4-0.4-0.4-0.9-0.1-1.3c0.4-0.4,0.9-0.4,1.3,0c0.7,0.6,1.3,1.3,1.9,1.9
		c1.1,1.1,2.4,1.5,3.9,1.2C51.7,37.2,53.9,39,53.9,41.5z"/>
	<path class="st2" d="M23.4,31.9c0.5,0,0.8,0.3,0.9,0.8c0.1,1.1,0.2,2.1,0.5,3.2c1.2,4.4,3.7,7.7,7.7,9.8c5.1,2.6,8.3,6.8,10.3,12
		c0.2,0.6,0.4,1.1,0.6,1.7c0.3,1,0.2,1.5-0.4,1.7c-0.6,0.2-0.9-0.1-1.3-1.1c-0.6-1.9-1.4-3.7-2.5-5.5c-1.8-3-4.2-5.4-7.4-7.1
		c-5.5-3-8.6-7.6-9.4-13.8c0-0.3,0-0.7,0-1C22.6,32.2,22.9,31.9,23.4,31.9z"/>
	<path class="st2" d="M70.6,69.3c-0.4,0-0.8,0-1.2,0c-0.9,0-1.4-0.5-1.5-1.3c0-0.4,0-0.8,0-1.2c0-0.4-0.2-0.5-0.5-0.5
		c-0.4,0-0.7,0-1.1,0c-0.7,0-1.2-0.4-1.3-1.1c-0.1-1.1-0.1-2.1,0-3.2c0.1-0.7,0.6-1.1,1.3-1.1c0.3,0,0.7,0,1,0
		c0.5,0.1,0.7-0.2,0.7-0.7c0-0.3,0-0.6,0-0.8c0.1-1,0.6-1.5,1.6-1.5c0.8,0,1.6,0,2.4,0c0.9,0,1.4,0.5,1.5,1.5c0,0.5-0.2,1.1,0.1,1.4
		c0.3,0.3,0.9,0.1,1.4,0.1c0.9,0,1.4,0.5,1.5,1.4c0,0.9,0,1.8,0,2.7c0,0.8-0.6,1.3-1.4,1.4c-0.5,0-1.2-0.2-1.5,0.1
		c-0.3,0.3-0.1,1-0.1,1.5c0,0.8-0.6,1.4-1.4,1.4C71.4,69.4,71,69.3,70.6,69.3z M74.5,63.6c0-1.1,0-0.9-1-1c-0.1,0-0.2,0-0.3,0
		c-1.2,0-1.7-0.5-1.7-1.7c0-1.3,0.2-1.2-1.3-1.2h-0.1c-0.3,0-0.4,0.1-0.4,0.4c0,0.4,0,0.7,0,1.1c0,0.9-0.6,1.4-1.4,1.4
		c-0.3,0-0.6,0-0.9,0c-0.5-0.1-0.6,0.2-0.6,0.6c0,1.3,0,1.3,1.3,1.3c1.2,0,1.7,0.5,1.7,1.7c0,1.5-0.3,1.3,1.4,1.3
		c0.3,0,0.5-0.2,0.5-0.5c0-0.4,0-0.9,0.1-1.3c0.1-0.8,0.6-1.2,1.4-1.2c0.2,0,0.5,0,0.7,0c0.8,0,0.8,0,0.8-0.9
		C74.5,63.7,74.5,63.7,74.5,63.6z"/>
	<path class="st2" d="M46,74.9c0,0.4,0,0.8,0,1.2c0,0.7-0.3,1.1-0.9,1.1c-0.5,0-0.8-0.3-0.9-1c-0.1-1.7-0.1-3.3-0.3-5
		c-0.2-2.4-0.6-4.8-1.1-7.2c0-0.1-0.1-0.2-0.1-0.3c-0.1-0.6,0.2-1,0.7-1.1s0.9,0.2,1,0.7c0.3,1.2,0.5,2.5,0.7,3.8
		C45.7,69.7,45.9,72.4,46,74.9z"/>
</g>
<g>
	<path class="st3" d="M50.7,79.8c-0.4-0.4-0.5-0.8-0.5-1.4c0-1.8,0-3.6,0-5.5c0-0.5-0.1-0.8-0.6-0.9c-2.3-0.8-4.5-1.8-6.6-2.9
		c-0.6-0.3-0.6-0.3-0.6,0.4c0,1.2,0,2.4,0,3.7c0,0.7-0.3,1.1-0.9,1.2c-0.6,0-1.1-0.3-1.1-1.1c0-1.6,0-3.2,0-4.8
		c0-0.5-0.2-0.9-0.6-1.2c-1.1-0.7-2.2-1.4-3.3-2.2c-0.1-0.1-0.3-0.3-0.5-0.2c-0.1,0.1-0.1,0.3-0.1,0.5c0,2.5,0,5.1,0,7.6
		c0,0.2,0,0.4,0,0.6c-0.1,0.5-0.4,0.8-0.9,0.8c-0.5,0-0.9-0.2-1-0.7c-0.1-0.3-0.1-0.7-0.1-1c0-3,0-5.9,0-8.9c0-0.5-0.2-0.9-0.6-1.3
		c-2.3-2-4.2-4.2-5.8-6.7c-0.2-0.4-0.5-0.5-0.9-0.5c-1.8,0-3.6,0-5.4,0c-0.2,0-0.4,0-0.6,0c-0.7-0.1-1.1-0.5-1.1-1
		c0-0.6,0.5-1,1.1-1c1.6,0,3.2,0,4.8,0c0.7,0,0.7,0,0.4-0.7c-0.9-2.2-1.5-4.6-1.4-7c0.1-1.3,0.4-2.5,1-3.6c0.3-0.5,0.8-0.7,1.3-0.5
		c0.5,0.2,0.7,0.8,0.5,1.3c-1.3,2.7-0.8,5.3,0,8c0.2,0.7,0.6,1.4,0.9,2.1c0.2,0.6,0.7,0.4,1.1,0.4c0.4,0,0.6-0.1,0.8-0.5
		c1-2.1,2-4.2,3-6.4c0.2-0.5,0.5-0.9,1.1-0.9c0.6,0,0.8,0.5,1,0.9c1.6,3.7,3.2,7.4,4.7,11.2c0.1,0.2,0.2,0.4,0.3,0.6
		c0.3-0.1,0.3-0.4,0.3-0.6c1-2.9,1.9-5.8,2.9-8.7c0.1-0.2,0.1-0.4,0.2-0.6c0.2-0.4,0.5-0.7,1-0.8c0.5,0,0.8,0.3,1,0.7
		c0.5,1.3,0.9,2.5,1.4,3.8c0.5,1.3,0.2,1.1,1.6,1.1c0.4,0,0.8,0,1.2,0c0.6,0,1,0.4,1,1c0,0.5-0.4,1-0.9,1c-1.1,0-2.2,0-3.3,0
		c-0.5,0-0.8-0.4-0.9-0.8c-0.3-0.9-0.7-1.8-1-2.7c-0.2,0.2-0.2,0.4-0.3,0.6c-1,2.9-1.9,5.8-2.9,8.7c-0.2,0.5-0.4,1.1-1.1,1.1
		c-0.7,0-0.9-0.5-1.2-1c-1.6-3.9-3.3-7.7-4.9-11.6C34.2,49.3,34.2,49,34,49c-0.2,0-0.3,0.3-0.3,0.5c-0.7,1.4-1.3,2.8-2,4.2
		C31,55,31,55,29.6,55.2c0.1,0.4,0.4,0.6,0.6,0.9c2.7,3.5,5.9,6.4,9.6,8.8c4.3,2.8,8.8,5,13.8,6.2c1.9,0.5,3.8,0.7,5.8,0.5
		c1.9-0.2,3-1.2,3.7-2.9c0.7-1.6,1.1-3.3,1.2-5c0.6-6.9-0.4-13.6-3-20.1c-0.2-0.5-0.4-1-0.7-1.5c-1.2-2.9-3.4-4.8-6.4-5.8
		c-6-2-12.1-2.3-18.2-0.5c-2.1,0.6-4,1.8-5.8,3.1c-0.2,0.2-0.5,0.4-0.7,0.6c-0.5,0.4-1.1,0.3-1.4-0.1c-0.3-0.4-0.3-0.9,0.2-1.4
		c0.6-0.6,1.3-1.1,2-1.5c0.4-0.2,0.6-0.5,0.6-1c0-0.5,0-1,0.1-1.6c0-0.8,0-0.8-0.8-0.8c-1.3,0-2.7,0-4,0c-0.2,0-0.5,0-0.7,0
		c-0.6-0.1-1-0.5-1-1.1c0-0.6,0.5-0.9,1.1-0.9c0.7,0,1.4,0,2.1,0c1.1,0,2.2,0,3.2,0c0.5,0,0.7-0.2,0.8-0.6c0.1-0.3,0.2-0.6,0.3-0.9
		c0.3-0.8,0.3-0.8-0.6-0.8c-1.8,0-3.6,0-5.5,0c-0.2,0-0.4,0-0.6,0c-0.5-0.1-0.9-0.4-0.9-0.9c0-0.5,0.3-0.9,0.8-1
		c0.2-0.1,0.5-0.1,0.7-0.1c2.3,0,4.6,0,6.8,0c0.5,0,0.8-0.1,1.1-0.5c0.6-0.9,1.4-1.6,2.2-2.2c0.3-0.2,0.4-0.5,0.2-0.8
		c-0.5-0.9-0.9-1.9-1.3-2.8c-0.5-1-0.2-1.7,0.7-2.2c0.8-0.4,1.7-0.8,2.5-1.2c0.9-0.4,1.6-0.1,2,0.8c0.5,1,1,2,1.4,3
		c0.2,0.6,0.6,0.5,1.1,0.4c0.5-0.1,0.5-0.4,0.5-0.7c0-0.9,0-1.8,0-2.7c0-1.1,0.5-1.6,1.7-1.6c0.9,0,1.9,0,2.8,0
		c0.9,0,1.4,0.5,1.4,1.4c0,1,0,2,0,3c0,0.3-0.1,0.6,0.3,0.7c0.4,0.1,0.5-0.3,0.6-0.6c0.5-1.1,1-2.1,1.5-3.2c0.5-1,1.2-1.2,2.2-0.8
		c0.8,0.3,1.5,0.7,2.3,1.1c1.1,0.5,1.4,1.2,0.8,2.3c-0.5,1.1-1,2.2-1.5,3.3c-0.2,0.4-0.2,0.6,0.2,0.9c0.7,0.6,1.3,1.2,1.8,1.9
		c0.2,0.3,0.5,0.4,0.9,0.4c1.5,0,3,0,4.5,0c0.2,0,0.5,0,0.7,0c0.5,0.1,0.8,0.4,0.9,1c0,0.5-0.4,0.9-0.9,1c-0.2,0-0.3,0-0.5,0
		c-3.8,0-7.5,0-11.3,0c-0.1,0-0.2,0-0.2,0c-0.7,0-1.2-0.4-1.2-1c0-0.6,0.5-1,1.2-1.1c1,0,2,0,3,0c0.2,0,0.4,0,0.7,0
		c-0.4-0.5-0.8-0.8-1.2-1.2c-0.9-0.8-1-1.3-0.5-2.4c0.5-1,0.9-2.1,1.4-3.1c0.2-0.3,0.2-0.5-0.2-0.7c-1.5-0.6-1.1-0.8-1.8,0.6
		c-0.4,0.8-0.8,1.7-1.2,2.5c-0.4,0.9-1,1.2-2,1c-2.3-0.4-2.4-0.6-2.4-2.9c0-0.6,0-1.2,0-1.8c0-0.4-0.1-0.6-0.6-0.6
		c-1.5,0-1.3-0.1-1.3,1.2c0,0.7,0,1.4,0,2.1c0,1-0.5,1.5-1.5,1.6c-0.6,0.1-1.2,0.2-1.8,0.3c-0.8,0.1-1.4-0.2-1.8-0.9
		c-0.5-1-0.9-1.9-1.4-2.9c-0.2-0.4-0.3-0.4-0.7-0.3c-1.2,0.6-1.2,0.5-0.7,1.7c0.3,0.7,0.6,1.3,0.9,2c0.4,1,0.3,1.6-0.6,2.2
		c-2.4,1.7-4,4.1-4.7,7c-0.2,0.7-0.2,1.5-0.3,2.3c0,0.4,0.1,0.5,0.5,0.3c1-0.5,2-0.8,3.1-1.1c0.4-0.1,0.5-0.4,0.5-0.7
		c1-3.3,3.1-5.3,6.5-6.1c1.1-0.2,2.1-0.2,3.2-0.2c0.6,0,1.1,0.5,1.1,1c0,0.6-0.4,1-1.1,1c-1,0-1.9-0.1-2.9,0.1
		c-2.1,0.5-3.6,1.7-4.5,3.6c-0.1,0.1-0.2,0.3-0.1,0.5c0.1,0.1,0.3,0.1,0.5,0.1c3.4-0.5,6.9-0.4,10.3,0.2c0.4,0.1,0.6,0,0.9-0.4
		c0.8-1.2,2-1.8,3.4-1.8c2.9,0,5.9,0,8.8,0c0.8,0,1.3,0.4,1.3,1c0,0.6-0.4,1-1.2,1.1c-0.7,0-1.5,0-2.2,0c-0.5,0-0.7,0.1-0.6,0.6
		c0.2,1.3,0.1,2.5,0.1,3.8c0,0.2,0,0.4,0.2,0.6c2.1,2.7,3.1,5.8,4.1,9c0.5,1.7,0.9,3.5,1.2,5.3c0.1,0.5,0.3,0.6,0.7,0.6
		c0.2,0,0.4,0,0.6,0c0.7-0.1,1.2,0.3,1.5,0.9c0.6,1.1,1.2,2.1,1.9,3.2c0.1-0.8,0.3-1.6,0.4-2.4c0.4-2.2,0.8-4.3,1.1-6.5
		c0-0.2,0.1-0.3,0.1-0.5c0.1-0.4,0.4-0.7,0.9-0.8c0.5-0.1,0.8,0.2,1,0.6c0.9,1.8,2,3.4,3,5.1c0.2,0.4,0.5,0.5,1,0.5
		c0.7,0,1.5,0,2.2,0c0.7,0,1.2,0.4,1.2,1c0,0.6-0.4,1-1.1,1c-1.1,0-2.2,0-3.3,0c-0.5,0-0.9-0.3-1.2-0.7c-0.7-1.1-1.4-2.2-2.1-3.4
		c-0.3,0-0.2,0.2-0.2,0.4c-0.5,2.9-1,5.8-1.5,8.7c-0.1,0.5-0.3,0.9-0.8,1c-0.6,0.1-1-0.2-1.2-0.7c-0.9-1.6-1.8-3.2-2.7-4.8
		c-0.1-0.1-0.1-0.2-0.2-0.3c-0.1-0.3-0.4-0.4-0.7-0.3c-0.4,0.1-0.3,0.4-0.2,0.6c0.2,1.8,0.3,3.6,0.2,5.3c-0.1,2.7-0.4,5.4-1.4,7.9
		c-0.8,2.1-2,3.8-4.3,4.4c-0.4,0.1-0.4,0.4-0.4,0.8c0,1.5,0,2.9,0,4.4c0,0.5-0.1,1-0.6,1.3c-0.3,0-0.6,0-0.9,0
		c-0.4-0.3-0.6-0.8-0.5-1.3c0-1.4,0-2.8,0-4.2c0-0.4-0.1-0.6-0.6-0.6c-1.6,0-3.2-0.3-4.8-0.7c-0.8-0.2-0.8-0.2-0.8,0.6
		c0,1.6,0,3.1,0,4.7c0,0.6-0.1,1-0.5,1.4C51.4,79.8,51.1,79.8,50.7,79.8z M58.4,34.9c0-0.4,0-0.7-0.1-1.1c0-0.5-0.3-0.8-0.8-0.7
		c-1.1,0-2.1,0-3.2,0c-0.4,0-0.7,0-1.1,0.2c-0.2,0.1-0.4,0.2-0.4,0.4c0,0.2,0.3,0.2,0.5,0.2c1.3,0.4,2.7,0.9,3.9,1.6
		C58.4,36.2,58.4,36.2,58.4,34.9z"/>
</g>
</svg>
