<?xml version="1.0" encoding="utf-8"?>
<!-- Generator: Adobe Illustrator 25.3.0, SVG Export Plug-In . SVG Version: 6.00 Build 0)  -->
<svg version="1.1" id="Layer_1" xmlns="http://www.w3.org/2000/svg" xmlns:xlink="http://www.w3.org/1999/xlink" x="0px" y="0px"
	 viewBox="0 0 96 96" style="enable-background:new 0 0 96 96;" xml:space="preserve">
<style type="text/css">
	.st0{fill:#EAC3C5;}
	.st1{display:none;}
	.st2{display:inline;fill:#9B1821;}
	.st3{fill:#9B1821;}
</style>
<circle class="st0" cx="48" cy="48" r="48"/>
<g class="st1">
	<path class="st2" d="M40.8,78.5c-1.2-0.6-1.4-1.7-1.1-3.5c0.2-1.1,1.2-1.7,2.5-1.7c0.9,0,1.8,0,2.7,0c0.3,0,0.5-0.1,0.5-0.5
		c0-0.7,0-1.5,0-2.2c0-0.3-0.1-0.4-0.5-0.5c-1.9-0.1-2.6-0.9-2.6-2.8c0-0.5-0.2-0.7-0.7-0.7c-1.5,0-3.1,0.1-4.6-0.2
		c-0.9-0.2-1.7-0.5-2.4-0.9c-0.6-0.4-0.8-0.9-0.6-1.4c0.3-0.5,0.8-0.7,1.4-0.3c1.2,0.7,2.6,0.9,4,0.9c5.6,0,11.1,0,16.7,0
		c0.8,0,0.8,0,0.8-0.8c0-1.4,0-2.7,0-4.1c0-0.3,0-0.5,0.1-0.8c0.2-0.4,0.4-0.6,0.9-0.6c0.4,0,0.7,0.2,0.9,0.6
		c0.1,0.3,0.1,0.5,0.1,0.8c0,1.4,0,2.8,0,4.2c0,0.5,0.1,0.7,0.7,0.7c2.7,0,5.4,0,8.1,0c2.1,0,3.4-1.3,3.4-3.4c0-1.5,0-3,0-4.5
		c0-1.4-0.6-2-2-2c-8.9,0-17.7,0-26.6,0c-1.8,0-3.2-0.6-4.4-1.8c-2.6-2.7-5.3-5.4-8-8.1c-0.3-0.3-0.6-0.7-1.1-0.7
		c-1.1-0.2-2,0.5-2,1.6c0,2.2,0,4.4,0,6.6c0,1.6,0,3.3,0,4.9c0,0.7,0.3,1.2,0.9,1.6c1.3,0.8,2.5,1.6,3.8,2.4
		c0.2,0.1,0.4,0.2,0.5,0.4c0.3,0.3,0.4,0.7,0.2,1.1c-0.3,0.4-0.6,0.6-1.1,0.4c-0.2-0.1-0.3-0.1-0.5-0.2c-1.2-0.8-2.5-1.6-3.7-2.3
		c-1.3-0.8-1.9-1.9-1.9-3.5c0-3.7,0-7.4,0-11.1c0-2,1-3.3,2.7-3.8c1.4-0.3,2.6,0.2,3.6,1.2c2.7,2.7,5.4,5.4,8.1,8.1
		c0.9,1,2,1.4,3.3,1.4c8.9,0,17.7,0,26.6,0c1.9,0,3.2,1,3.6,2.8c0.1,0.3,0.1,0.6,0.1,0.8c0,1.6,0,3.3,0,4.9c0,2.8-2,4.9-4.8,5.1
		c-3.3,0.2-6.7,0-10.1,0.1c-0.2,0-0.4,0-0.6,0c-0.3,0-0.4,0.1-0.4,0.4c0,0.2,0,0.4,0,0.7c0,1.4-0.9,2.4-2.3,2.4
		c-0.5,0-0.7,0.2-0.7,0.7c0,0.6,0,1.3,0,1.9c0,0.4,0.2,0.6,0.6,0.6c0.7,0,1.4,0,2,0c2-0.2,3.3,0.9,3.1,3.2c-0.1,0.9-0.3,1.7-1.1,2.1
		C52.7,78.5,46.8,78.5,40.8,78.5z M49.7,76.7c2.5,0,4.9,0,7.4,0c0.8,0,0.9-0.1,0.8-0.9c-0.1-0.5-0.4-0.6-0.8-0.6c-2.5,0-5,0-7.6,0
		c-2.4,0-4.7,0-7.1,0c-0.8,0-0.8,0.1-0.9,0.9c-0.1,0.7,0.4,0.6,0.8,0.6C44.8,76.7,47.3,76.7,49.7,76.7z M49.7,66.6
		c-1.6,0-3.2,0-4.8,0c-0.5,0-0.7,0.2-0.6,0.7c0,0.5,0,0.9,0.6,0.9c3.2,0,6.4,0,9.6,0c0.7,0,0.6-0.5,0.7-0.9c0-0.6-0.2-0.6-0.7-0.6
		C52.9,66.6,51.3,66.6,49.7,66.6z M49.7,73.2c0.6,0,1.2,0,1.8,0c0.4,0,0.5-0.1,0.5-0.5c0-0.7,0-1.4,0-2.1c0-0.4-0.1-0.5-0.5-0.5
		c-1.2,0-2.5,0-3.7,0c-0.4,0-0.5,0.1-0.5,0.5c0,0.7,0,1.4,0,2.1c0,0.4,0.2,0.5,0.5,0.5C48.5,73.2,49.1,73.2,49.7,73.2z"/>
	<path class="st2" d="M73.7,30.5c-0.5-0.2-1,0.2-1.4,0.6c-1.4,1.2-2.8,2.4-4.2,3.6c-0.3,0.3-0.4,0.5-0.1,0.8
		c1.1,1.2,1.8,2.6,2.1,4.1c0.1,0.3,0.2,0.6,0.5,0.8c1,0.7,1.2,1.8,0.7,2.8c-0.5,1-1.7,1.5-2.8,1.1c-2.3-0.8-4.6-1.6-6.8-2.5
		c-3.1-1.1-6.1-2.2-9.2-3.4c-0.5-0.2-1-0.4-1.3-0.8c-0.6-0.7-0.8-1.5-0.4-2.4c0.4-0.9,1.1-1.4,2.1-1.3c0.5,0,0.8-0.1,1.2-0.4
		c2.5-1.7,5.3-2.3,8.3-1.6c0.5,0.1,0.8,0.1,1.2-0.3c1.9-1.6,3.7-3.2,5.6-4.8c0.5-0.5,0.8-1.8,0.4-2.4c-0.7-1.1-1.4-2.2-2-3.3
		c-0.5-0.9-0.5-1.8,0-2.7c0.5-0.8,1.4-1.2,2.3-1.1c0.8,0.1,1.5,0.5,1.9,1.2c0.7,1,1.3,2.1,2,3.1c0.2,0.4,0.5,0.6,0.9,0.7
		c1.9,0.5,3.3,2.4,3,4.3C77.6,29,75.9,30.5,73.7,30.5z M56,34.8c0.2,0.3,0.4,0.3,0.6,0.3c1.5,0.5,3,1.1,4.5,1.6
		c0.9,0.3,1.9,0.7,2.8,1.1c0.5,0.2,0.8,0.7,0.6,1.2c-0.2,0.5-0.6,0.7-1.2,0.6c-0.3-0.1-0.6-0.2-0.9-0.3c-2.9-1.1-5.8-2.1-8.7-3.2
		c-0.3-0.1-0.8-0.4-1,0c-0.2,0.5,0.4,0.5,0.8,0.6c2.5,0.9,5,1.8,7.5,2.7c2.6,0.9,5.2,1.9,7.8,2.8c0.3,0.1,0.7,0.4,0.9,0
		c0.2-0.5-0.4-0.5-0.7-0.6c-0.5-0.2-1.1-0.4-1.6-0.6c-0.5-0.2-0.8-0.5-0.7-1.1c0.1-0.5,0.5-0.8,1-0.8c0.3,0,0.4-0.1,0.3-0.4
		c-0.1-0.2-0.2-0.4-0.2-0.5c-1.8-3.4-5.4-5.2-9.2-4.4C57.6,34,56.8,34.2,56,34.8z M75.9,26.4c0-1.2-0.9-2.1-2.1-2.1
		c-1.2,0-2.2,0.9-2.1,2.1c0,1.1,1,2.1,2.1,2.1C75,28.6,75.9,27.6,75.9,26.4z M66.2,33.6c0.2,0,0.3-0.1,0.4-0.2
		c1.4-1.2,2.8-2.4,4.2-3.5c0.5-0.4,0.2-0.6,0-0.9c-0.3-0.4-0.5-0.2-0.8,0c-1.4,1.2-2.8,2.4-4.2,3.6c-0.2,0.1-0.5,0.2-0.4,0.5
		C65.5,33.4,65.9,33.5,66.2,33.6z M69.3,20c0,0.1,0,0.2,0.1,0.3c0.6,0.9,1.1,1.8,1.7,2.8c0.1,0.2,0.3,0.2,0.4,0
		c0.2-0.2,0.8-0.2,0.6-0.6c-0.5-1-1.2-1.9-1.8-2.9c-0.2-0.2-0.4-0.2-0.7-0.1C69.3,19.6,69.3,19.8,69.3,20z"/>
	<path class="st2" d="M26.5,37.1c0-0.9,0.3-1.5,0.9-1.9c0.3-0.2,0.4-0.4,0.5-0.7c0.3-1.1,0.7-2.1,1.3-3c0.3-0.4,0.2-0.5-0.3-0.7
		c-1.1-0.3-2.1-0.6-3.1-0.9c-0.3-0.1-0.5-0.1-0.8,0.1c-1.5,0.8-3,0.8-4.4-0.2c-1.3-0.9-1.9-2.3-1.6-3.9c0.3-1.7,1.3-2.8,3-3.3
		c0.3-0.1,0.6-0.3,0.8-0.6c0.6-1.1,1.3-2.1,2-3.1c0.8-1.3,2.3-1.7,3.5-0.9c1.2,0.8,1.6,2.2,0.7,3.6c-0.6,1-1.2,2-1.8,2.9
		C27,24.8,27,25,27.5,25.1c2.3,0.6,4.5,1.3,6.7,1.9c0.3,0.1,0.5,0,0.8,0c3.2-0.9,6.2-0.4,9,1.5c0.3,0.2,0.6,0.3,1,0.3
		c1.2,0,2.1,0.7,2.4,1.7c0.2,1.1-0.3,2.2-1.5,2.6c-2.4,0.9-4.7,1.7-7.1,2.6c-3,1.1-6,2.2-8.9,3.3c-1.2,0.4-2.2,0.2-2.9-0.6
		C26.6,38,26.4,37.5,26.5,37.1z M42.1,29.7c0-0.1,0-0.1,0-0.2c-2.5-1.3-5-1.4-7.6-0.3c-2.1,0.9-3.6,2.5-4.5,4.9
		C34.2,32.6,38.1,31.2,42.1,29.7z M45.5,31c-0.2-0.5-0.5-0.3-0.8-0.2c-3.3,1.2-6.7,2.4-10,3.6c-1.9,0.7-3.8,1.4-5.8,2.1
		c-0.3,0.1-0.6,0.2-0.5,0.5c0.1,0.4,0.5,0.2,0.8,0.1c0.1,0,0.1,0,0.2-0.1c3.3-1.2,6.6-2.4,9.9-3.6c1.9-0.7,3.7-1.4,5.6-2
		C45.1,31.4,45.4,31.4,45.5,31z M20.9,26.5c0,1.2,1,2.1,2.1,2.1c1.2,0,2.1-1,2.1-2.1c0-1.2-0.9-2.1-2.2-2.1
		C21.8,24.3,20.9,25.2,20.9,26.5z M32,28.4c-1.6-0.5-3.1-0.9-4.6-1.3c-0.5-0.1-0.3,0.4-0.5,0.6c-0.2,0.3-0.1,0.5,0.2,0.6
		c0.9,0.2,1.8,0.4,2.6,0.8C30.7,29.4,31.3,29.2,32,28.4z M27.6,20c0-0.2-0.1-0.4-0.3-0.5c-0.3-0.1-0.6,0-0.8,0.3
		c-0.5,0.9-1.1,1.7-1.6,2.6c-0.2,0.3-0.1,0.5,0.2,0.6c0.3,0.1,0.5,0.6,0.8,0c0.5-0.8,1-1.6,1.5-2.4C27.5,20.4,27.6,20.2,27.6,20z"/>
	<path class="st2" d="M65.2,58.6c0-0.4,0-0.7,0-1.1c0-0.6,0.4-1,0.9-1c0.5,0,0.9,0.3,1,0.9c0.1,0.8,0.1,1.6,0,2.4
		c0,0.5-0.4,0.9-0.9,0.9c-0.5,0-0.9-0.4-1-0.9C65.2,59.4,65.2,59,65.2,58.6C65.2,58.6,65.2,58.6,65.2,58.6z"/>
	<path class="st2" d="M32,55.3c0-0.4,0-0.8,0-1.1c0-0.6,0.3-0.9,0.9-1c0.5-0.1,0.9,0.3,1,0.8c0.1,0.8,0.1,1.7,0,2.5
		c-0.1,0.6-0.5,0.9-1,0.8c-0.5,0-0.8-0.4-0.9-0.9C31.9,56.1,32,55.7,32,55.3C32,55.3,32,55.3,32,55.3z"/>
	<path class="st2" d="M41.7,60.6c0-0.4,0-0.8,0-1.2c0-0.6,0.5-1,1-0.9c0.5,0,0.9,0.4,0.9,0.9c0,0.8,0,1.7,0,2.5
		c0,0.5-0.4,0.9-0.9,0.9c-0.5,0-0.9-0.4-0.9-0.9c0,0,0-0.1,0-0.1C41.7,61.3,41.7,60.9,41.7,60.6C41.7,60.6,41.7,60.6,41.7,60.6z"/>
	<path class="st2" d="M73.8,27.3c-0.5,0-0.9-0.4-0.9-1c0-0.5,0.4-0.9,0.9-0.9c0.5,0,0.9,0.4,0.9,0.9C74.8,26.9,74.3,27.3,73.8,27.3z
		"/>
	<path class="st2" d="M24,26.4c0,0.5-0.4,0.9-0.9,0.9c-0.5,0-0.9-0.4-0.9-0.9c0-0.5,0.4-0.9,1-0.9C23.6,25.5,23.9,25.9,24,26.4z"/>
</g>
<g>
	<path class="st3" d="M22.7,71.2c0.3,0.4,0.6,0.6,1,0.9c2.9,1.6,5.7,3.3,8.6,4.9c0.9,0.5,1.6,0.3,2.1-0.6c1.4-2.4,2.7-4.7,4.1-7.1
		c0.6-1.1,0.6-1.1,1.8-0.8c5,1.3,9.8,1.1,14.6-0.8c0,0,0.1,0,0.1,0c0.6-0.2,0.8-0.7,0.6-1.1c-0.2-0.5-0.7-0.7-1.3-0.5
		c-1.2,0.4-2.4,0.8-3.7,1.1c-3.4,0.7-6.8,0.6-10.1-0.4c-1.8-0.5-2.7-0.1-3.6,1.5c-1.3,2.2-2.5,4.4-3.8,6.6c-0.2,0.4-0.4,0.4-0.7,0.2
		c-0.3-0.2-0.6-0.4-1-0.6c-0.4-0.2-0.4-0.4-0.2-0.7c1.3-2.1,2.5-4.3,3.7-6.5c0.4-0.6,0.7-1.3,1.1-1.9c0.7-1.2,2-1.7,3.3-1.3
		c2.1,0.7,4.2,1.2,6.4,1.2c2.7,0,5.3-0.3,7.7-1.5c2.6-1.3,3.8-3.5,3.8-6.4c0-7.5,0-15,0-22.5c0-3.4-1.8-5.9-5.1-7
		c-7.7-2.6-16.3,0.1-21.2,6.6c-0.1,0.1-0.2,0.2-0.3,0.3c-0.2,0.4-0.2,0.9,0.2,1.2c0.4,0.3,0.8,0.3,1.2-0.1c0.4-0.4,0.7-0.8,1-1.2
		c3.3-3.7,7.3-5.7,12.3-5.9c2.3-0.1,4.5,0.2,6.6,1c2.2,0.8,3.6,2.7,3.6,5c0,7.6,0,15.2,0,22.8c0,2.4-1.4,4.3-3.7,5.1
		c-3.9,1.3-7.8,1.3-11.7-0.1c-1.6-0.6-3.1-0.5-4.5,0.5c-0.6,0.4-1,0.9-1.3,1.5c-1.6,2.7-3.1,5.4-4.7,8.1c-0.4,0.6-0.4,0.6-1,0.2
		c-0.2-0.1-0.5-0.3-0.7-0.4c-0.8-0.5-0.8-0.5-0.3-1.2c1.7-3,3.5-6,5.2-9c1-1.7,0.9-3.5-0.3-5.1c-1.9-2.5-3.2-5.3-3.7-8.4
		c-0.5-3.1-0.1-6.1,1-9c0.1-0.3,0.2-0.6,0.3-0.9c0.1-0.4-0.1-0.8-0.5-1c-0.4-0.2-0.8-0.1-1.1,0.3c-0.1,0.2-0.2,0.3-0.3,0.5
		c-2.7,6.8-1.9,13.2,2.5,19.2c0.7,0.9,1.1,1.8,0.7,2.9c-0.1,0.4-0.3,0.7-0.5,1.1c-1.7,3-3.4,5.9-5.1,8.9c-0.2,0.4-0.4,0.5-0.8,0.2
		c-0.9-0.6-0.9-0.6-0.4-1.5c1.4-2.5,2.8-4.9,4.3-7.3C30,61,30,60,29.2,58.9c-2-2.7-3.3-5.8-3.8-9.2c-1-7.2,1-13.4,6.2-18.6
		c3.6-3.5,7.9-5.6,12.9-6c8.9-0.6,15.8,3,20.5,10.6c0.7,1.1,1.5,2.2,2.7,2.9c2.1,1.3,3.2,3.2,3.6,5.5c0.5,2.7,0.3,5.3-0.9,7.8
		c-0.6,1.1-1.3,2-2.4,2.6c-1.5,0.8-2.6,1.9-3.4,3.3c-1.6,2.6-3.7,4.7-6.3,6.4c0,0-0.1,0.1-0.1,0.1c-0.6,0.4-0.7,0.9-0.4,1.3
		c0.3,0.5,0.8,0.5,1.4,0.2c0.9-0.6,1.8-1.3,2.7-2c1.8-1.6,3.3-3.4,4.6-5.4c0.5-0.8,1.1-1.5,2-2c2.6-1.3,3.9-3.4,4.6-6.1
		c0.9-3.6,0.6-7.1-1.4-10.4c-0.5-0.9-1.2-1.6-2.1-2.2c-1.4-0.8-2.3-2-3.2-3.3c-3.7-6-9.1-9.7-16.1-10.8c-7.3-1.1-13.8,0.9-19.3,6
		c-4,3.7-6.4,8.2-7.1,13.6c-0.8,6,0.5,11.6,4,16.5c0.5,0.7,0.5,1.2,0.1,1.8c-1.7,2.9-3.3,5.8-5,8.7C22.7,70.5,22.7,70.8,22.7,71.2z"
		/>
	<path class="st3" d="M59.9,39.9c0-1.1,0.5-1.9,1.4-2.4c0.9-0.5,1.8-0.3,2.7,0.3c1.1,0.8,1.9,1.8,2.4,3c1.6,3.4,1.7,6.9,0.3,10.4
		c-0.5,1.4-1.4,2.7-2.7,3.6c-0.4,0.3-0.9,0.6-1.4,0.6c-1.6,0.1-2.8-1-2.8-2.7c0-2.1,0-4.2,0-6.3C59.9,44.2,59.9,42.1,59.9,39.9z
		 M61.7,52.6c0,0.4,0,0.8,0.4,1c0.4,0.2,0.7,0,1-0.2c1.2-0.9,1.8-2.2,2.3-3.5c0.9-3,0.7-5.8-0.7-8.6c-0.4-0.8-1-1.4-1.6-1.9
		c-0.3-0.2-0.6-0.3-1-0.2c-0.3,0.2-0.4,0.5-0.4,0.9c0,2.1,0,4.3,0,6.4C61.7,48.5,61.7,50.5,61.7,52.6z"/>
	<path class="st3" d="M76.8,52.5c0.5-0.1,0.8-0.2,0.9-0.6c0.1-0.4,0.1-0.7-0.3-1c-0.6-0.4-1.1-0.7-1.7-1c-0.3-0.2-0.7,0-0.9,0.2
		c-0.2,0.3-0.3,0.7-0.1,0.9C75.2,51.8,76,52.1,76.8,52.5z"/>
	<path class="st3" d="M76.5,47.2c0.3,0,0.6,0,0.9,0c0.5-0.1,0.8-0.3,0.8-0.8c0-0.5-0.2-0.8-0.7-0.9c-0.7-0.1-1.3-0.1-2,0
		c-0.5,0.1-0.8,0.5-0.7,0.9c0.1,0.5,0.4,0.8,0.9,0.8C75.9,47.2,76.2,47.2,76.5,47.2C76.5,47.2,76.5,47.2,76.5,47.2z"/>
	<path class="st3" d="M75.4,42.7c0.1,0,0.2,0,0.3-0.1c0.5-0.3,1.1-0.6,1.6-0.9c0.4-0.3,0.5-0.7,0.3-1.1c-0.2-0.4-0.7-0.5-1.1-0.3
		c-0.5,0.3-1.1,0.6-1.6,0.9c-0.4,0.2-0.5,0.6-0.3,1C74.7,42.5,75,42.7,75.4,42.7z"/>
</g>
</svg>
