<?xml version="1.0" encoding="utf-8"?>
<!-- Generator: Adobe Illustrator 25.3.0, SVG Export Plug-In . SVG Version: 6.00 Build 0)  -->
<svg version="1.1" id="Layer_1" xmlns="http://www.w3.org/2000/svg" xmlns:xlink="http://www.w3.org/1999/xlink" x="0px" y="0px"
	 viewBox="0 0 96 96" style="enable-background:new 0 0 96 96;" xml:space="preserve">
<style type="text/css">
	.st0{fill:#EAC3C5;}
	.st1{fill:#9B1821;}
</style>
<circle class="st0" cx="48" cy="48" r="48"/>
<g>
	<path class="st1" d="M79.4,50.7c-0.2,0.7-0.3,1.4-0.5,2c-0.5,1.5-1.6,2.4-3.1,2.7c-0.4,0.1-0.5,0.2-0.3,0.6
		c0.5,0.8,0.9,1.5,1.4,2.3c2.2,4.1,1,8.6-2.8,11.2c-3.1,2.1-6.7,3.1-10.4,3.5c-4.4,0.4-8.6-0.2-12.8-1.5c-0.1,0-0.2-0.1-0.3-0.1
		c-0.6-0.3-0.9-0.8-0.8-1.3c0.2-0.6,0.8-0.9,1.4-0.7c1.4,0.4,2.8,0.9,4.3,1.1c5.6,1,11.1,0.7,16.3-2c1.1-0.6,2.2-1.3,3-2.4
		c1.5-2.2,1.6-4.5,0.2-6.8c-1.4-2.4-2.9-4.9-4.4-7.3c-0.2-0.3-0.3-0.5-0.5-0.8c-0.2-0.5-0.1-1,0.4-1.3c0.4-0.3,1.1-0.2,1.4,0.3
		c0.5,0.7,0.9,1.4,1.3,2.2c0.5,0.8,1.3,1.1,2.2,1.1c0.6,0,1.1-0.3,1.4-1c0.6-1.8,0.8-3.7,0.3-5.5c-0.5-1.6-2.3-2.2-3.5-1.2
		c-0.6,0.5-0.5,0.6,0.1,1c0.1,0,0.1,0.1,0.2,0.1c0.7,0.4,1,0.9,0.7,1.5c-0.3,0.6-0.9,0.7-1.7,0.4c-1.4-0.7-2.7-1.3-4.1-2
		c-1.6-0.8-3.4-0.1-4.1,1.6c-0.3,0.8-0.2,1.7,0.1,2.5c1.4,2.9,2.7,5.7,4,8.6c0.1,0.1,0.1,0.3,0.2,0.4c0.2,0.6,0.1,1.2-0.5,1.4
		c-0.5,0.3-1.1,0-1.4-0.6c-0.3-0.6-0.6-1.1-0.8-1.7c-0.5-1-0.9-1.9-1.4-2.9c-0.2-0.4-0.5-0.7-0.9-0.9c-1.9-0.8-3.9-1.1-6-1.2
		c-0.3,0-0.6,0.1-0.9,0.3c-2.7,1.6-5.5,3.3-8.2,4.9c-0.2,0.1-0.4,0.3-0.7,0.4c-0.5,0.2-1.1,0.1-1.4-0.4c-0.3-0.5-0.1-1,0.3-1.4
		c0.2-0.2,0.5-0.3,0.7-0.4c3-1.8,6-3.5,8.9-5.3c1.1-0.6,1.6-1.6,1.4-2.9c-0.1-1.1-0.7-1.9-1.7-2.4c-0.5-0.2-1.1-0.3-1.7-0.2
		c-0.3,0.1-0.7,0-1,0.1c-0.7,0.1-1.2-0.2-1.5-0.8c-0.5-1.1-1.7-1.7-2.8-1.6c-0.2,0-0.4,0.1-0.4,0.4c0.3,1.7,0,3.3-0.6,5.1
		c1.1-0.5,2.1-1,3.1-1.4c0.3-0.1,0.6-0.3,0.9-0.2c0.5,0.1,0.8,0.4,0.9,0.9c0.1,0.5-0.2,0.9-0.6,1.1c-1.3,0.6-2.6,1.2-4,1.8
		c-1.3,0.6-2.7,1.2-4,1.8c-1.2,0.6-2.1,1.5-2.7,2.8c-0.2,0.6-0.5,1.1-0.7,1.7c-0.3,0.6-0.8,0.8-1.4,0.6c-0.5-0.2-0.8-0.8-0.6-1.4
		c0.9-2.7,2.4-4.8,5.1-5.9c0.5-0.2,0.9-0.5,1.1-1c1-1.8,1.6-3.6,1.2-5.7c-0.1-0.5-0.2-0.6-0.7-0.3c-1,0.5-2,0.9-3.1,0.9
		c-0.7,0-1.1-0.3-1.2-0.9c0-0.6,0.4-1,1-1.1c0.7-0.1,1.5-0.2,2.1-0.6c0.7-0.3,0.7-0.4,0.2-1c-0.1-0.1-0.3-0.3-0.4-0.4
		c-0.5-0.4-0.7-0.9-0.7-1.5c0-1.3-0.6-1.8-1.8-1.6c-0.8,0.1-1.3-0.1-1.7-0.8c-0.3-0.6-0.8-1.1-1.2-1.6c-0.5-0.6-0.4-1.2,0.1-1.6
		c0.5-0.4,1.1-0.3,1.6,0.3c0.1,0.1,0.1,0.2,0.2,0.3c0.5,0.8,1.1,1.3,2.2,1.3c1.6,0,2.6,1.4,2.8,3.1c0,0.4,0.2,0.7,0.5,1
		c0.5,0.4,0.9,1,1.2,1.5c0.2,0.4,0.5,0.5,0.9,0.4c2-0.3,3.6,0.3,4.8,1.9c0.3,0.4,0.6,0.4,1,0.4c1.6-0.1,3,0.2,4.1,1.4
		c1.5,1.6,1.9,3.4,1.2,5.5c-0.2,0.5-0.1,0.7,0.4,0.7c0.6,0.1,1.3,0.2,1.9,0.3c0.2,0,0.5,0.3,0.7,0.1c0.1-0.2-0.1-0.4-0.2-0.7
		c-0.5-1.1-0.8-2.3-0.5-3.5c0.7-3,4-4.8,6.8-3.6c0.5,0.2,1,0.4,1.4,0.7c0.3,0.1,0.5,0.2,0.6-0.1c1-1.6,2.5-2.2,4.3-1.9
		c1.8,0.3,2.9,1.6,3.4,3.3c0.1,0.2,0.2,0.5,0.2,0.7C79.4,48.4,79.4,49.5,79.4,50.7z"/>
	<path class="st1" d="M12.5,45.1c0-8.3,5.9-15.2,13.9-16.4c4.1-0.6,7.9,0.3,11.4,2.5c0.1,0.1,0.3,0.2,0.4,0.3c0.5,0.4,0.7,1,0.3,1.5
		c-0.3,0.5-0.9,0.6-1.5,0.2c-1.5-1-3.1-1.7-4.8-2.2c-8.2-2-16.4,3.6-17.5,11.9c-1,7.8,4.5,15,12.3,16c2.1,0.3,4.2,0.1,6.3,0.1
		c0.9,0,1.9,0,2.8,0c0.5,0,1,0.2,1.3,0.6c2.7,3.4,6.1,6,10,8c0.8,0.4,1,1,0.7,1.6c-0.3,0.6-0.9,0.7-1.6,0.3
		c-2.4-1.2-4.6-2.6-6.6-4.4c-1.2-1.1-2.4-2.2-3.5-3.5c-0.3-0.4-0.7-0.5-1.2-0.5c-2.1,0-4.3,0-6.4,0c-7.7-0.1-14.3-5.4-15.9-12.9
		C12.6,47.3,12.5,46.1,12.5,45.1z"/>
	<path class="st1" d="M31.3,53.7c1.1,0,1.9-0.7,2-1.8c0.1-0.4,0.1-0.9,0.6-1.1c0.3-0.2,0.7-0.2,1.1,0c0.4,0.3,0.5,0.7,0.5,1.2
		c-0.2,2.2-2.1,3.9-4.3,3.8c-3-0.1-5.2-2.8-4.8-5.7c0.3-1.8,2.1-3.4,3.9-3.4c0.6,0,1.1,0.4,1.2,1c0.1,0.5-0.4,1-1,1.1
		c-1.5,0.3-2.2,1-2.1,2.2c0.1,1.3,1.2,2.6,2.5,2.7C31,53.7,31.2,53.7,31.3,53.7z"/>
	<path class="st1" d="M36.7,43.5c-0.1,0-0.3,0-0.5-0.1c-0.5-0.2-0.8-0.5-0.8-1.1c0.1-0.6,0.4-0.9,1-0.9c0.8,0,1.3-0.2,1.6-1
		c0.2-0.6,0.8-0.8,1.3-0.6c0.5,0.2,0.8,0.7,0.7,1.2C39.7,42.4,38.3,43.5,36.7,43.5z"/>
</g>
</svg>
